# xmcd
#
# Track frame offsets: 
#        150
#        21437
#        39181
#        55023
#        76875
#        96168
#        115088
#        136295
#        151687
#        167095
#        187723
#        209829
#        229063
#        247276
#        268023
#        284185
#
# Disc length: 4038 seconds
#
# Revision: 1
# Processed by: cddbd v1.5.2PL0 Copyright (c) Steve Scherf et al.
# Submitted via: ExactAudioCopy v0.99pb5
#
DISCID=dd0fc410
DTITLE=최성수 - The Best History
DYEAR=2008
DGENRE=Pop
TTITLE0=해후
TTITLE1=동행
TTITLE2=당신은사랑입니다.
TTITLE3=후인
TTITLE4=풀잎사랑
TTITLE5=남남
TTITLE6=기쁜우리사랑은
TTITLE7=당신
TTITLE8=목련꽃필때면
TTITLE9=잊지말아요
TTITLE10=TV를보면서
TTITLE11=Whisky on the Rock
TTITLE12=그대는모르시더이다
TTITLE13=애수
TTITLE14=공항의이별[원제-아름다운날의끝이여]
TTITLE15=누가말했나[원제-아침이오면]
EXTD=
EXTT0=
EXTT1=
EXTT2=
EXTT3=
EXTT4=
EXTT5=
EXTT6=
EXTT7=
EXTT8=
EXTT9=
EXTT10=
EXTT11=
EXTT12=
EXTT13=
EXTT14=
EXTT15=
PLAYORDER=
